<svg width="21" height="21" viewBox="0 0 21 21" fill="none" xmlns="http://www.w3.org/2000/svg">
<g clip-path="url(#clip0_139_6646)">
<g clip-path="url(#clip1_139_6646)">
<path d="M0.60344 14.2616H10.444V16.0697H16.5955V14.2655H19.0394C19.1976 16.4158 19.2101 18.3304 17.0046 19.7897C16.9777 19.8075 16.956 19.8318 16.8963 19.885C17.1675 20.1103 17.4348 20.3329 17.6995 20.5529C17.3422 20.8945 17.0552 21.169 16.7262 21.4842C16.4359 21.1848 16.1219 20.8373 15.7797 20.5207C15.6793 20.4275 15.5013 20.3894 15.3555 20.3802C15.117 20.3657 14.8753 20.4045 14.635 20.4052C11.4397 20.4071 8.24446 20.4065 5.04855 20.4065C4.89552 20.4065 4.73198 20.436 4.59077 20.3933C4.16452 20.2653 3.89393 20.4629 3.64041 20.7684C3.42433 21.0284 3.17803 21.2629 2.95275 21.5007C2.64866 21.1808 2.37347 20.8918 2.06872 20.5707C2.27298 20.39 2.53241 20.1602 2.82403 19.9014C2.62305 19.7576 2.47265 19.6577 2.33012 19.5474C1.26219 18.7244 0.684881 17.6329 0.609351 16.2924C0.571914 15.6284 0.602783 14.9604 0.602783 14.2616H0.60344Z" fill="white"/>
<path d="M0.609527 9.28712C0.604273 9.16825 0.595078 9.06119 0.595078 8.95413C0.594421 7.21366 0.592451 5.47384 0.595078 3.73336C0.597705 1.82081 1.92506 0.486222 3.83499 0.500014C4.47601 0.504612 5.13674 0.491476 5.7528 0.636625C6.84569 0.894741 7.534 1.65267 7.86633 2.7206C7.93069 2.92814 8.01411 3.02863 8.24201 3.09037C9.52799 3.43912 10.4304 4.64104 10.4468 5.98219C10.4495 6.19827 10.4468 6.41435 10.4468 6.64882H4.35976C4.06946 5.11392 4.90358 3.52976 6.64734 3.0352C6.48971 2.35017 5.81519 1.7722 5.10718 1.74725C4.5719 1.7282 4.03465 1.72623 3.49937 1.74725C2.57659 1.78337 1.83443 2.63062 1.83049 3.64666C1.82392 5.39765 1.82852 7.14929 1.82852 8.90028C1.82852 9.01981 1.82852 9.13935 1.82852 9.28647H0.608213L0.609527 9.28712Z" fill="white"/>
<path d="M10.4266 13.0327C10.2979 13.0327 10.2013 13.0327 10.1048 13.0327C6.97715 13.0327 3.84889 13.0334 0.72129 13.0321C0.0480868 13.0321 -0.435963 12.7135 -0.60607 12.1697C-0.862215 11.3514 -0.282275 10.5632 0.601755 10.5514C1.54227 10.5389 2.48278 10.5481 3.4233 10.5481C5.63272 10.5481 7.84148 10.5481 10.0509 10.5481C10.1691 10.5481 10.2873 10.5481 10.4266 10.5481V13.0321V13.0327Z" fill="white"/>
<path d="M15.3577 14.8711H11.6974C11.6915 14.7555 11.6816 14.6504 11.6816 14.5453C11.6803 13.2771 11.6803 12.0082 11.6816 10.7399C11.6823 9.82239 12.1834 9.31798 13.097 9.31404C13.4359 9.31272 13.7748 9.3055 14.1137 9.31601C14.8749 9.34031 15.3721 9.85194 15.3741 10.6151C15.378 11.9385 15.3754 13.2613 15.3741 14.5847C15.3741 14.6708 15.3649 14.7561 15.3577 14.8711Z" fill="white"/>
<path d="M16.6172 13.0209V10.5481C17.2122 10.5481 17.7987 10.5462 18.3846 10.5488C18.69 10.5501 19.002 10.5251 19.3008 10.5744C19.953 10.6821 20.3773 11.2161 20.3503 11.8394C20.3241 12.4508 19.8729 12.9756 19.2325 13.0091C18.3734 13.0544 17.5104 13.0203 16.6178 13.0203L16.6172 13.0209Z" fill="white"/>
</g>
</g>
<defs>
<clipPath id="clip0_139_6646">
<rect width="20" height="20" fill="white" transform="translate(0.333984 0.5)"/>
</clipPath>
<clipPath id="clip1_139_6646">
<rect width="21.0171" height="21" fill="white" transform="translate(-0.666016 0.5)"/>
</clipPath>
</defs>
</svg>
