<svg width="21" height="21" viewBox="0 0 21 21" fill="none" xmlns="http://www.w3.org/2000/svg">
<g clip-path="url(#clip0_139_6640)">
<g clip-path="url(#clip1_139_6640)">
<path d="M10.3459 17.9597C7.34768 17.9597 4.35026 17.9597 1.35205 17.9597C1.04892 17.9597 0.908771 18.0984 0.908771 18.3977C0.908771 18.4752 0.912707 18.5527 0.907983 18.6295C0.901685 18.7225 0.892236 18.8155 0.874915 18.9062C0.810353 19.2372 0.493052 19.5023 0.113552 19.4984C-0.267523 19.4946 -0.583248 19.2116 -0.640725 18.8481C-0.654109 18.7628 -0.661196 18.6752 -0.661196 18.5891C-0.661983 16.8279 -0.673793 15.0659 -0.657259 13.3046C-0.647811 12.2783 -0.26831 11.3853 0.459197 10.6419C0.900897 10.1907 1.42606 9.86976 2.0268 9.66511C2.49921 9.50465 2.98736 9.45581 3.48496 9.45581C8.09645 9.45736 12.7079 9.45348 17.3194 9.45891C18.6705 9.46046 19.7649 9.9969 20.5759 11.0636C20.9743 11.5884 21.212 12.1845 21.2931 12.8357C21.3207 13.055 21.3325 13.2783 21.3333 13.5C21.3364 15.2101 21.3357 16.9202 21.3349 18.6302C21.3349 18.8977 21.2679 19.1411 21.0443 19.3178C20.8081 19.5046 20.5444 19.5535 20.2633 19.4395C19.994 19.3295 19.824 19.1271 19.7854 18.838C19.7657 18.6922 19.7681 18.5426 19.7641 18.3953C19.7578 18.1574 19.6578 18.0139 19.4578 17.9698C19.4137 17.9597 19.3673 17.9605 19.3216 17.9605C16.3305 17.9605 13.3394 17.9605 10.3475 17.9605L10.3459 17.9597Z" fill="white"/>
<path d="M10.236 2.5C12.1807 2.5 14.1247 2.5 16.0686 2.5C16.7197 2.5 17.3284 2.64341 17.8535 3.03953C18.5291 3.54884 18.9235 4.21938 18.9566 5.06124C18.9849 5.77519 18.9723 6.4907 18.9755 7.20543C18.9779 7.66589 18.9755 8.12636 18.9755 8.58682C18.9755 8.62791 18.9731 8.67132 18.9621 8.71085C18.9282 8.83566 18.8597 8.88527 18.7306 8.86124C18.5897 8.83488 18.4535 8.77829 18.3125 8.76279C17.9811 8.72713 17.6488 8.70233 17.3158 8.68527C17.0937 8.67364 17.0252 8.63411 16.9937 8.41938C16.893 7.73876 16.2528 7.12636 15.434 7.13566C14.5207 7.14574 13.6074 7.13798 12.6948 7.13798C12.0154 7.13798 11.4351 7.53643 11.2044 8.16434C11.1713 8.25426 11.1587 8.35194 11.1414 8.44651C11.1091 8.61628 11.0454 8.67984 10.8737 8.68217C10.5139 8.68605 10.1533 8.68605 9.79347 8.68217C9.62813 8.68062 9.56278 8.61628 9.53286 8.42791C9.49113 8.16357 9.3872 7.92791 9.21713 7.72093C8.90928 7.34574 8.51089 7.14186 8.01958 7.13953C7.07713 7.13488 6.13468 7.13721 5.19144 7.13876C4.39937 7.13953 3.77973 7.74884 3.67895 8.41783C3.64667 8.63411 3.58132 8.67209 3.35929 8.68605C2.9916 8.71008 2.62391 8.74419 2.257 8.78295C2.14441 8.79457 2.03655 8.84264 1.92474 8.86124C1.80428 8.88062 1.74838 8.84031 1.71452 8.72403C1.70114 8.67829 1.69484 8.62946 1.69484 8.5814C1.69405 7.47674 1.67909 6.37209 1.69799 5.26744C1.71767 4.11163 2.26015 3.26202 3.32149 2.74806C3.74194 2.54574 4.19781 2.5 4.65919 2.5C6.51811 2.5 8.37704 2.5 10.236 2.5Z" fill="white"/>
</g>
</g>
<defs>
<clipPath id="clip0_139_6640">
<rect width="20" height="20" fill="white" transform="translate(0.333984 0.5)"/>
</clipPath>
<clipPath id="clip1_139_6640">
<rect width="22" height="17" fill="white" transform="translate(-0.666016 2.5)"/>
</clipPath>
</defs>
</svg>
