<svg width="20" height="20" viewBox="0 0 20 20" fill="none" xmlns="http://www.w3.org/2000/svg">
<path d="M18.3337 4.83326C17.7073 5.10501 17.0448 5.28465 16.367 5.3666C17.0821 4.93936 17.6181 4.26725 17.8753 3.47493C17.2033 3.87498 16.4676 4.15684 15.7003 4.30826C15.1874 3.75207 14.5045 3.38184 13.7585 3.25564C13.0125 3.12944 12.2458 3.2544 11.5785 3.61092C10.9112 3.96745 10.3811 4.53537 10.0714 5.22563C9.76162 5.91588 9.68974 6.68942 9.86699 7.42493C8.50818 7.3562 7.17903 7.00239 5.96587 6.38648C4.75272 5.77057 3.6827 4.90634 2.82533 3.84993C2.52461 4.37507 2.36659 4.96978 2.36699 5.57493C2.36593 6.13692 2.50384 6.69044 2.76845 7.18623C3.03307 7.68202 3.41617 8.10469 3.88366 8.4166C3.34031 8.40181 2.80856 8.25601 2.33366 7.9916V8.03326C2.33773 8.82067 2.61365 9.58251 3.11475 10.1899C3.61585 10.7973 4.31137 11.213 5.08366 11.3666C4.78637 11.4571 4.47772 11.5048 4.16699 11.5083C3.9519 11.5058 3.73734 11.4862 3.52533 11.4499C3.74525 12.1273 4.17084 12.7192 4.74289 13.1434C5.31493 13.5676 6.00497 13.8029 6.71699 13.8166C5.51466 14.7627 4.03023 15.279 2.50033 15.2833C2.22177 15.2842 1.94344 15.2675 1.66699 15.2333C3.22902 16.2418 5.04934 16.7772 6.90866 16.7749C8.19174 16.7883 9.4646 16.5458 10.6529 16.0617C11.8412 15.5775 12.9212 14.8615 13.8297 13.9553C14.7381 13.0492 15.457 11.9711 15.9441 10.784C16.4313 9.59695 16.677 8.3247 16.667 7.0416C16.667 6.89993 16.667 6.74993 16.667 6.59993C17.3209 6.11227 17.8849 5.51445 18.3337 4.83326Z" fill="white"/>
</svg>
